<svg xmlns="http://www.w3.org/2000/svg" width="24" height="24">
    <g data-name="Group 15948">
        <g data-name="Group 8934">
            <g data-name="Group 8932">
                <path data-name="Rectangle 5130" style="fill:none" d="M0 0h24v24H0z"/>
            </g>
        </g>
        <g data-name="Layer 3">
            <path data-name="Path 5" d="M18.857 15.692H5.746a.589.589 0 0 1-.474-.967.565.565 0 0 1 .443-.205h10.9a1.691 1.691 0 0 0 1.669-1.712.569.569 0 0 0-.185-.42.539.539 0 0 0-.429-.137L5.177 13.789A1.36 1.36 0 0 0 4 15.15v8.994a2.076 2.076 0 0 0 2.049 2.1h11.9a2.076 2.076 0 0 0 2.051-2.1v-7.279a1.158 1.158 0 0 0-1.143-1.173zm-1.143 6.485A1.173 1.173 0 1 1 18.857 21a1.158 1.158 0 0 1-1.143 1.177z" style="fill:#bfc6d3" transform="translate(0 -7.246)"/>
        </g>
    </g>
</svg>
