<svg xmlns="http://www.w3.org/2000/svg" width="24" height="24">
    <g data-name="Group 16001">
        <g data-name="Group 15947">
            <g data-name="Group 8932">
                <path data-name="Rectangle 5130" style="fill:none" d="M0 0h24v24H0z"/>
            </g>
        </g>
        <path data-name="Path 19768" d="m18 14.15-3.27-1.685a1.092 1.092 0 0 0-1.349.286l-1.2 1.533A12.074 12.074 0 0 1 9.1 12.027a12.171 12.171 0 0 1-2.3-3.133l1.521-1.179a1.068 1.068 0 0 0 .287-1.348l-1.67-3.251a1.079 1.079 0 0 0-1.552-.4L3.294 4.093a1.639 1.639 0 0 0-.708 1.449 10.674 10.674 0 0 0 .253 1.853 15.416 15.416 0 0 0 4.1 6.772 15.33 15.33 0 0 0 6.78 4.11 12.563 12.563 0 0 0 1.872.253 1.643 1.643 0 0 0 1.467-.741l1.349-2.106A1.064 1.064 0 0 0 18 14.15z" transform="translate(1.417 1.468)" style="fill:#bfc6d3"/>
    </g>
</svg>
