<svg id="Group_16006" data-name="Group 16006" xmlns="http://www.w3.org/2000/svg" width="24" height="24">
    <defs>
        <style>
            .cls-2{fill:#fff}
        </style>
    </defs>
    <path id="Rectangle_5420" data-name="Rectangle 5420" style="fill:none" d="M0 0h24v24H0z"/>
    <g id="Group_11520" data-name="Group 11520" transform="translate(2.4 2.4)">
        <g id="Group_11336" data-name="Group 11336" transform="translate(6.511)">
            <g id="Group_11285" data-name="Group 11285">
                <path id="Path_17591" data-name="Path 17591" class="cls-2" d="M32.573 18a6.206 6.206 0 0 0-5.213 2.763v-2.121H26v3.636a.662.662 0 0 0 .68.642h3.853v-1.284H28.4a4.907 4.907 0 0 1 6.447-1.828 4.366 4.366 0 0 1 1.937 6.083A4.7 4.7 0 0 1 34.16 28v1.347a5.748 5.748 0 0 0 4.317-7.079A6.073 6.073 0 0 0 32.573 18z" transform="translate(-26 -18)"/>
            </g>
        </g>
        <g id="Group_11349" data-name="Group 11349" transform="translate(0 6.362)">
            <g id="Group_11348" data-name="Group 11348">
                <path id="Path_18407" data-name="Path 18407" d="M20.838 10H8.734a.736.736 0 0 0-.734.734V22.1a.736.736 0 0 0 .734.734h12.1a.736.736 0 0 0 .734-.734V10.734a.736.736 0 0 0-.73-.734z" transform="translate(-8 -10)" style="fill:#6964e2"/>
                <path id="Path_18408" data-name="Path 18408" class="cls-2" d="M24.668 14.768h-3.3A.347.347 0 0 1 21 14.4V10h4.035v4.4a.347.347 0 0 1-.367.368z" transform="translate(-16.232 -10)"/>
            </g>
        </g>
    </g>
</svg>
