<svg data-name="Group 16009" xmlns="http://www.w3.org/2000/svg" width="30.727" height="33.332">
    <path data-name="Path 18565" d="m304.453 3347.806 9.009-5.08a1.724 1.724 0 0 0 0-3.022l-8.815-4.971a1.787 1.787 0 0 0-2.828 1.427v10.109a1.781 1.781 0 0 0 2.634 1.537zm1.528-15.23 11.562 6.52a2.4 2.4 0 0 0 2.355 0l.08-.045a1.724 1.724 0 0 0 0-3.022l-15.331-8.646a1.791 1.791 0 0 0-2.828 1.427v.168a.415.415 0 0 1-.622.351l-1.673-.943a.4.4 0 0 1-.2-.429 4.4 4.4 0 0 1 6.658-2.732l15.287 8.622a4.217 4.217 0 0 1 .031 7.368l-18.224 10.276a2.445 2.445 0 0 0-1.257 2.127 1.791 1.791 0 0 0 2.828 1.427l15.331-8.646a1.724 1.724 0 0 0 0-3.022l-.149-.084a.4.4 0 0 1 0-.7l1.67-.942a.423.423 0 0 1 .482.045 4.213 4.213 0 0 1-.712 6.886l-15.287 8.621a4.374 4.374 0 0 1-6.741-3.548v-20.723a2.156 2.156 0 0 0-1.108-1.875 1.791 1.791 0 0 0-2.828 1.427v17.458a1.791 1.791 0 0 0 2.828 1.428.415.415 0 0 1 .622.35v1.878a.408.408 0 0 1-.284.386 4.337 4.337 0 0 1-5.746-4.042v-17.458a4.364 4.364 0 0 1 6.516-3.714l6.741 3.805z" transform="translate(-292.723 -3324.548)" style="fill:#fff;fill-rule:evenodd"/>
    <path data-name="Path 18566" d="M628.8 3714.664a.659.659 0 0 0 1.042.539l5.651-3.263a.658.658 0 0 0 0-1.14l-5.651-3.263a.66.66 0 0 0-1.042.54z" transform="translate(-617.337 -3694.747)" style="fill:#18f040"/>
</svg>
