<svg xmlns="http://www.w3.org/2000/svg" width="24" height="24">
    <g data-name="Group 15946">
        <path data-name="Path 17877" d="M5.221 1.608A1.852 1.852 0 0 1 7 0a1.852 1.852 0 0 1 1.779 1.608A5.523 5.523 0 0 1 12.3 6.794v4.7h.464a1.267 1.267 0 0 1 0 2.533H9.32A2.423 2.423 0 0 1 7 16a2.423 2.423 0 0 1-2.32-1.97H1.238a1.267 1.267 0 0 1 0-2.533H1.7v-4.7a5.523 5.523 0 0 1 3.521-5.189zm2.669-.241a.984.984 0 0 0-1.779 0A6.113 6.113 0 0 1 7 1.286a6.113 6.113 0 0 1 .89.081z" transform="translate(5.102 4.333)" style="fill:#bfc6d3"/>
        <g data-name="Group 8930">
            <path data-name="Rectangle 5130" style="fill:none" d="M0 0h24v24H0z"/>
        </g>
    </g>
</svg>
