<svg xmlns="http://www.w3.org/2000/svg" width="158" height="34">
    <defs>
        <style>
            .cls-2{fill:#fff}
        </style>
    </defs>
    <g id="Group_15928" data-name="Group 15928" transform="translate(3343.001 -1711)">
        <path id="Path_18565" data-name="Path 18565" d="m304.453 3348.271 9.009-5.182a1.775 1.775 0 0 0 0-3.082l-8.815-5.071a1.786 1.786 0 0 0-2.828 1.456v10.308a1.782 1.782 0 0 0 2.634 1.568zm1.528-15.535 11.562 6.651a2.361 2.361 0 0 0 2.355 0l.08-.046a1.776 1.776 0 0 0 0-3.083l-15.331-8.819a1.789 1.789 0 0 0-2.828 1.456v.171a.415.415 0 0 1-.622.358l-1.673-.962a.413.413 0 0 1-.2-.437 4.381 4.381 0 0 1 6.658-2.787l15.287 8.795a4.344 4.344 0 0 1 .031 7.516l-18.224 10.482a2.5 2.5 0 0 0-1.257 2.169 1.789 1.789 0 0 0 2.828 1.456l15.331-8.819a1.776 1.776 0 0 0 0-3.083l-.149-.086a.413.413 0 0 1 0-.716l1.67-.96a.416.416 0 0 1 .482.046 4.345 4.345 0 0 1-.712 7.025l-15.287 8.794a4.369 4.369 0 0 1-6.741-3.619V3333.1a2.207 2.207 0 0 0-1.108-1.913 1.789 1.789 0 0 0-2.828 1.456v17.808a1.789 1.789 0 0 0 2.828 1.457.415.415 0 0 1 .622.357v1.916a.415.415 0 0 1-.284.393 4.349 4.349 0 0 1-5.746-4.123v-17.808a4.363 4.363 0 0 1 6.516-3.788q3.371 1.945 6.741 3.881z" transform="translate(-3635.724 -1613.548)" style="fill-rule:evenodd;fill:#fff"/>
        <g id="Group_11526" data-name="Group 11526" transform="translate(-3305.175 1715.528)">
            <path id="Path_3" data-name="Path 3" class="cls-2" d="m1282.094 3534.733-2.356 1.4a4.048 4.048 0 0 0-1.259-1.5 2.933 2.933 0 0 0-1.608-.4 2.969 2.969 0 0 0-2.007.685 2.125 2.125 0 0 0-.8 1.7q0 1.408 2.094 2.269l1.919.785a8.19 8.19 0 0 1 3.428 2.312 5.209 5.209 0 0 1 1.084 3.346 5.881 5.881 0 0 1-1.77 4.388 6.076 6.076 0 0 1-4.425 1.745 5.917 5.917 0 0 1-4.138-1.484 6.822 6.822 0 0 1-2.007-4.175l2.941-.648a5 5 0 0 0 .7 2.344 3.317 3.317 0 0 0 4.873.337 3.148 3.148 0 0 0 .9-2.306 3.241 3.241 0 0 0-.155-1.028 2.615 2.615 0 0 0-.486-.86 3.889 3.889 0 0 0-.854-.736 8.248 8.248 0 0 0-1.246-.654l-1.857-.773q-3.951-1.669-3.951-4.885a4.635 4.635 0 0 1 1.658-3.627 5.989 5.989 0 0 1 4.125-1.471 5.76 5.76 0 0 1 5.197 3.236z" transform="translate(-1270.254 -3530.058)"/>
            <path id="Path_4" data-name="Path 4" class="cls-2" d="M1718.856 3489.481h2.8v9.921a4.831 4.831 0 0 1 3.3-1.346 4.268 4.268 0 0 1 3.29 1.334 5.428 5.428 0 0 1 1.047 3.7v7.44h-2.8v-7.179a3.419 3.419 0 0 0-.517-2.113 1.991 1.991 0 0 0-1.664-.655 2.288 2.288 0 0 0-2.069.91 6.238 6.238 0 0 0-.586 3.166v5.87h-2.8z" transform="translate(-1703.551 -3489.481)"/>
            <path id="Path_5" data-name="Path 5" class="cls-2" d="M2116.679 3551.566a1.829 1.829 0 0 1 1.82-1.807 1.771 1.771 0 0 1 1.3.535 1.726 1.726 0 0 1 .536 1.284 1.766 1.766 0 0 1-.536 1.3 1.725 1.725 0 0 1-1.284.536 1.83 1.83 0 0 1-1.832-1.844zm3.228 5.047v12.14h-2.8v-12.14z" transform="translate(-2087.801 -3547.702)"/>
            <path id="Path_6" data-name="Path 6" class="cls-2" d="M2318.213 3759.9h-2.8v-18.745h2.8v1.321a5.19 5.19 0 0 1 3.764-1.658 5.25 5.25 0 0 1 4.125 1.845 6.66 6.66 0 0 1 1.645 4.624 6.559 6.559 0 0 1-1.633 4.549 5.319 5.319 0 0 1-7.9.1zm6.668-12.6a4.2 4.2 0 0 0-.947-2.842 3.062 3.062 0 0 0-2.418-1.109 3.2 3.2 0 0 0-2.5 1.072 4.063 4.063 0 0 0-.96 2.816 4.15 4.15 0 0 0 .96 2.817 3.149 3.149 0 0 0 2.492 1.084 3.039 3.039 0 0 0 2.406-1.1 3.981 3.981 0 0 0 .967-2.738z" transform="translate(-2279.75 -3731.264)"/>
            <path id="Path_7" data-name="Path 7" class="cls-2" d="M2764.011 3741.152h2.8v1.084a5.353 5.353 0 0 1 1.371-1.109 3.145 3.145 0 0 1 1.446-.312 4.534 4.534 0 0 1 2.318.723l-1.283 2.568a2.679 2.679 0 0 0-1.558-.573q-2.293 0-2.293 3.465v6.294h-2.8z" transform="translate(-2713.048 -3731.688)"/>
            <path id="Path_8" data-name="Path 8" class="cls-2" d="M3020.46 3747.134a6.032 6.032 0 0 1 1.882-4.474 6.638 6.638 0 0 1 9.2.012 6.5 6.5 0 0 1-.012 9.136 6.433 6.433 0 0 1-4.649 1.832 6.168 6.168 0 0 1-4.574-1.87 6.286 6.286 0 0 1-1.847-4.636zm2.867.05a4.094 4.094 0 0 0 .972 2.879 3.778 3.778 0 0 0 5.26.013 4.557 4.557 0 0 0 0-5.658 3.731 3.731 0 0 0-5.234 0 3.9 3.9 0 0 0-.998 2.766z" transform="translate(-2960.746 -3731.676)"/>
            <path id="Path_9" data-name="Path 9" class="cls-2" d="M3480.179 3741.676v3.727a6.831 6.831 0 0 0-1.72-1.608 3.349 3.349 0 0 0-1.758-.448 3.463 3.463 0 0 0-2.63 1.109 3.894 3.894 0 0 0-1.047 2.779 3.978 3.978 0 0 0 1.01 2.8 3.4 3.4 0 0 0 2.6 1.1 3.565 3.565 0 0 0 1.782-.436 7.065 7.065 0 0 0 1.757-1.645v3.7a7.374 7.374 0 0 1-3.416.885 6.533 6.533 0 0 1-4.711-1.82 6.072 6.072 0 0 1-1.895-4.549 6.153 6.153 0 0 1 1.92-4.587 6.492 6.492 0 0 1 4.711-1.87 7.045 7.045 0 0 1 3.397.863z" transform="translate(-3395.102 -3731.676)"/>
            <path id="Path_10" data-name="Path 10" class="cls-2" d="M3865.672 3489.481v12.838l3.95-3.926h3.765l-5.272 5.1 5.658 7.042h-3.639l-4.013-5.123-.448.449v4.674h-2.805v-21.051z" transform="translate(-3774.413 -3489.481)"/>
            <path id="Path_11" data-name="Path 11" class="cls-2" d="M4218.254 3747.882h-8.7a3.685 3.685 0 0 0 .973 2.38 2.964 2.964 0 0 0 2.207.873 2.868 2.868 0 0 0 1.731-.5 7.1 7.1 0 0 0 1.534-1.844l2.368 1.321a9.434 9.434 0 0 1-1.159 1.6 6.19 6.19 0 0 1-1.309 1.1 5.282 5.282 0 0 1-1.507.629 7.376 7.376 0 0 1-1.759.2 5.712 5.712 0 0 1-4.362-1.745 6.542 6.542 0 0 1-1.645-4.662 6.725 6.725 0 0 1 1.6-4.661 6.078 6.078 0 0 1 8.5-.049 6.714 6.714 0 0 1 1.545 4.7zm-2.879-2.293a2.687 2.687 0 0 0-2.829-2.243 2.908 2.908 0 0 0-.96.156 2.753 2.753 0 0 0-.816.448 2.842 2.842 0 0 0-.63.7 3.264 3.264 0 0 0-.4.935z" transform="translate(-4106.442 -3731.676)"/>
            <path id="Path_12" data-name="Path 12" class="cls-2" d="M4615.392 3627.33v9.522h-2.805v-9.522h-1.2v-2.618h1.2v-4.449h2.805v4.449h2.181v2.618z" transform="translate(-4497.398 -3615.408)"/>
        </g>
        <path id="Path_18566" data-name="Path 18566" d="M628.8 3714.664a.659.659 0 0 0 1.042.539l5.651-3.263a.658.658 0 0 0 0-1.14l-5.651-3.263a.66.66 0 0 0-1.042.54z" transform="translate(-3960.338 -1983.414)" style="fill:#18f040"/>
    </g>
</svg>
